REM DIRINDEX 1\2\6,1\2\7,1\2\8,1\2\9,1\3\10,1\3\11,1\4\12,1\4\13,1\4\14,1\5\15,1\5\16,1\5\17
REM DIRNAME cjc029,folder01,folder02,folder03,folder04,folder05,folder06,folder07,folder08,folder09,folder10,folder11,folder12,folder13,folder14,folder15,folder16
TITLE ""
FILE "1400_2_sec11_1034_1049.mp3" MP3
  TRACK 01 AUDIO
    TITLE "0:"
    INDEX 01 00:00:00
  TRACK 02 AUDIO
    TITLE "13:cjc029_3676"
    INDEX 01 00:00:17
  TRACK 03 AUDIO
    TITLE "0:"
    INDEX 01 00:01:40
  TRACK 04 AUDIO
    TITLE "14:cjc029_3677"
    INDEX 01 00:01:46
  TRACK 05 AUDIO
    TITLE "0:"
    INDEX 01 00:02:65
  TRACK 06 AUDIO
    TITLE "13:cjc029_3678"
    INDEX 01 00:03:47
  TRACK 07 AUDIO
    TITLE "0:"
    INDEX 01 00:04:58
  TRACK 08 AUDIO
    TITLE "14:cjc029_3679"
    INDEX 01 00:04:62
  TRACK 09 AUDIO
    TITLE "0:"
    INDEX 01 00:07:29
  TRACK 10 AUDIO
    TITLE "13:cjc029_3680"
    INDEX 01 00:08:13
  TRACK 11 AUDIO
    TITLE "0:"
    INDEX 01 00:09:38
  TRACK 12 AUDIO
    TITLE "14:cjc029_3681"
    INDEX 01 00:09:44
  TRACK 13 AUDIO
    TITLE "0:"
    INDEX 01 00:11:68
  TRACK 14 AUDIO
    TITLE "13:cjc029_3682"
    INDEX 01 00:12:52
  TRACK 15 AUDIO
    TITLE "0:"
    INDEX 01 00:13:65
  TRACK 16 AUDIO
    TITLE "14:cjc029_3683"
    INDEX 01 00:13:69
  TRACK 17 AUDIO
    TITLE "0:"
    INDEX 01 00:18:68
  TRACK 18 AUDIO
    TITLE "13:cjc029_3684"
    INDEX 01 00:19:48
  TRACK 19 AUDIO
    TITLE "0:"
    INDEX 01 00:20:73
  TRACK 20 AUDIO
    TITLE "14:cjc029_3685"
    INDEX 01 00:21:08
  TRACK 21 AUDIO
    TITLE "0:"
    INDEX 01 00:23:61
  TRACK 22 AUDIO
    TITLE "13:cjc029_3686"
    INDEX 01 00:24:45
  TRACK 23 AUDIO
    TITLE "0:"
    INDEX 01 00:25:56
  TRACK 24 AUDIO
    TITLE "14:cjc029_3687"
    INDEX 01 00:25:60
  TRACK 25 AUDIO
    TITLE "0:"
    INDEX 01 00:28:74
  TRACK 26 AUDIO
    TITLE "13:cjc029_3688"
    INDEX 01 00:29:54
  TRACK 27 AUDIO
    TITLE "0:"
    INDEX 01 00:30:50
  TRACK 28 AUDIO
    TITLE "14:cjc029_3689"
    INDEX 01 00:30:59
  TRACK 29 AUDIO
    TITLE "0:"
    INDEX 01 00:32:11
  TRACK 30 AUDIO
    TITLE "13:cjc029_3690"
    INDEX 01 00:32:68
  TRACK 31 AUDIO
    TITLE "0:"
    INDEX 01 00:34:00
  TRACK 32 AUDIO
    TITLE "14:cjc029_3691"
    INDEX 01 00:34:06
  TRACK 33 AUDIO
    TITLE "0:"
    INDEX 01 00:36:64
  TRACK 34 AUDIO
    TITLE "13:cjc029_3692"
    INDEX 01 00:37:48
  TRACK 35 AUDIO
    TITLE "0:"
    INDEX 01 00:38:59
  TRACK 36 AUDIO
    TITLE "14:cjc029_3693"
    INDEX 01 00:38:65
  TRACK 37 AUDIO
    TITLE "0:"
    INDEX 01 00:41:55
  TRACK 38 AUDIO
    TITLE "12:cjc029_3694"
    INDEX 01 00:43:27
  TRACK 39 AUDIO
    TITLE "0:"
    INDEX 01 00:44:56
  TRACK 40 AUDIO
    TITLE "13:cjc029_3695"
    INDEX 01 00:45:61
  TRACK 41 AUDIO
    TITLE "0:"
    INDEX 01 00:46:72
  TRACK 42 AUDIO
    TITLE "14:cjc029_3696"
    INDEX 01 00:47:01
  TRACK 43 AUDIO
    TITLE "0:"
    INDEX 01 00:50:48
  TRACK 44 AUDIO
    TITLE "13:cjc029_3697"
    INDEX 01 00:51:32
  TRACK 45 AUDIO
    TITLE "0:"
    INDEX 01 00:52:37
  TRACK 46 AUDIO
    TITLE "14:cjc029_3698"
    INDEX 01 00:52:43
  TRACK 47 AUDIO
    TITLE "0:"
    INDEX 01 00:53:53
  TRACK 48 AUDIO
    TITLE "13:cjc029_3699"
    INDEX 01 00:54:34
  TRACK 49 AUDIO
    TITLE "0:"
    INDEX 01 00:55:61
  TRACK 50 AUDIO
    TITLE "14:cjc029_3700"
    INDEX 01 00:55:63
  TRACK 51 AUDIO
    TITLE "0:"
    INDEX 01 00:57:68
  TRACK 52 AUDIO
    TITLE "13:cjc029_3701"
    INDEX 01 00:58:48
  TRACK 53 AUDIO
    TITLE "0:"
    INDEX 01 00:59:49
  TRACK 54 AUDIO
    TITLE "14:cjc029_3702"
    INDEX 01 00:59:55
  TRACK 55 AUDIO
    TITLE "0:"
    INDEX 01 01:01:72
  TRACK 56 AUDIO
    TITLE "13:cjc029_3703"
    INDEX 01 01:02:55
  TRACK 57 AUDIO
    TITLE "0:"
    INDEX 01 01:04:05
  TRACK 58 AUDIO
    TITLE "14:cjc029_3704"
    INDEX 01 01:04:07
  TRACK 59 AUDIO
    TITLE "0:"
    INDEX 01 01:07:35
  TRACK 60 AUDIO
    TITLE "13:cjc029_3705"
    INDEX 01 01:08:15
  TRACK 61 AUDIO
    TITLE "0:"
    INDEX 01 01:09:48
  TRACK 62 AUDIO
    TITLE "14:cjc029_3706"
    INDEX 01 01:09:54
  TRACK 63 AUDIO
    TITLE "0:"
    INDEX 01 01:12:19
  TRACK 64 AUDIO
    TITLE "13:cjc029_3707"
    INDEX 01 01:13:02
  TRACK 65 AUDIO
    TITLE "0:"
    INDEX 01 01:14:12
  TRACK 66 AUDIO
    TITLE "14:cjc029_3708"
    INDEX 01 01:14:17
  TRACK 67 AUDIO
    TITLE "0:"
    INDEX 01 01:16:40
